<?xml version="1.0" encoding="UTF-8" standalone="no"?>
<svg
   xmlns:dc="http://purl.org/dc/elements/1.1/"
   xmlns:cc="http://creativecommons.org/ns#"
   xmlns:rdf="http://www.w3.org/1999/02/22-rdf-syntax-ns#"
   xmlns:svg="http://www.w3.org/2000/svg"
   xmlns="http://www.w3.org/2000/svg"
   version="1.1"
   id="svg2"
   viewBox="0 0 8.4666665 8.4666669"
   height="32"
   width="32">
  <defs
     id="defs4" />
  <metadata
     id="metadata7">
    <rdf:RDF>
      <cc:Work
         rdf:about="">
        <dc:format>image/svg+xml</dc:format>
        <dc:type
           rdf:resource="http://purl.org/dc/dcmitype/StillImage" />
        <dc:title></dc:title>
      </cc:Work>
    </rdf:RDF>
  </metadata>
  <g
     transform="translate(0,-288.53332)"
     id="layer1">
    <path
       id="rect4141"
       d="m 1.280542,290.54844 c -0.2028538,0 -0.36638593,0.16353 -0.36638593,0.36639 0,0.20285 0.16353213,0.36587 0.36638593,0.36587 l 5.9055825,0 c 0.2028539,0 0.366386,-0.16302 0.366386,-0.36587 0,-0.20286 -0.1635321,-0.36639 -0.366386,-0.36639 l -5.9055825,0 z m 0,1.85209 c -0.2028538,0 -0.36638593,0.16352 -0.36638593,0.36638 0,0.20285 0.16353213,0.36587 0.36638593,0.36587 l 5.9055825,0 c 0.2028539,0 0.366386,-0.16302 0.366386,-0.36587 0,-0.20286 -0.1635321,-0.36638 -0.366386,-0.36638 l -5.9055825,0 z m 0,1.85208 c -0.2028538,0 -0.36638593,0.16353 -0.36638593,0.36639 0,0.20285 0.16353213,0.36586 0.36638593,0.36586 l 5.9055825,0 c 0.2028539,0 0.366386,-0.16301 0.366386,-0.36586 0,-0.20286 -0.1635321,-0.36639 -0.366386,-0.36639 l -5.9055825,0 z"
       style="fill:#ffffff;fill-opacity:1;stroke:none;stroke-width:0.15874998;stroke-miterlimit:4;stroke-dasharray:none" />
  </g>
</svg>
