<?xml version="1.0" encoding="UTF-8" standalone="no"?>
<!-- Created with Inkscape (http://www.inkscape.org/) -->

<svg
   xmlns:dc="http://purl.org/dc/elements/1.1/"
   xmlns:cc="http://creativecommons.org/ns#"
   xmlns:rdf="http://www.w3.org/1999/02/22-rdf-syntax-ns#"
   xmlns:svg="http://www.w3.org/2000/svg"
   xmlns="http://www.w3.org/2000/svg"
   xmlns:sodipodi="http://sodipodi.sourceforge.net/DTD/sodipodi-0.dtd"
   xmlns:inkscape="http://www.inkscape.org/namespaces/inkscape"
   width="188.91251mm"
   height="109.13885mm"
   viewBox="0 0 188.91251 109.13885"
   id="svg2"
   version="1.1"
   inkscape:version="0.91+devel+osxmenu r12922"
   sodipodi:docname="diatech_logo.svg">
  <defs
     id="defs4" />
  <sodipodi:namedview
     id="base"
     pagecolor="#ffffff"
     bordercolor="#666666"
     borderopacity="1.0"
     inkscape:pageopacity="0.0"
     inkscape:pageshadow="2"
     inkscape:zoom="0.35"
     inkscape:cx="207.82501"
     inkscape:cy="170.85536"
     inkscape:document-units="mm"
     inkscape:current-layer="layer1"
     showgrid="false"
     inkscape:snap-global="false"
     fit-margin-top="0"
     fit-margin-left="0"
     fit-margin-right="0"
     fit-margin-bottom="0"
     inkscape:window-width="1440"
     inkscape:window-height="806"
     inkscape:window-x="0"
     inkscape:window-y="535"
     inkscape:window-maximized="0" />
  <metadata
     id="metadata7">
    <rdf:RDF>
      <cc:Work
         rdf:about="">
        <dc:format>image/svg+xml</dc:format>
        <dc:type
           rdf:resource="http://purl.org/dc/dcmitype/StillImage" />
        <dc:title></dc:title>
      </cc:Work>
    </rdf:RDF>
  </metadata>
  <g
     inkscape:label="Layer 1"
     inkscape:groupmode="layer"
     id="layer1"
     transform="translate(-11.358187,-82.123658)">
    <path
       style="fill:#00336f;fill-opacity:1;stroke-width:0.26458332"
       d="m 153.88044,190.86797 c -2.45139,-0.52588 -4.15889,-1.23102 -5.98694,-2.47243 -3.17623,-2.15693 -5.69378,-5.91612 -6.49513,-9.69845 -0.50104,-2.36492 -0.49263,-6.39478 0.0179,-8.56078 1.35373,-5.74376 5.71139,-10.22052 11.49404,-11.80821 2.38016,-0.6535 7.92753,-0.65525 10.31875,-0.003 1.84157,0.50211 5.02374,1.95613 6.05069,2.76472 0.70896,0.55821 0.75955,0.39033 -1.06957,3.54969 l -1.03225,1.78298 -0.99531,-0.62831 c -1.22296,-0.77202 -3.23679,-1.62477 -4.75342,-2.01282 -1.31264,-0.33585 -4.86961,-0.40832 -6.17409,-0.12579 -2.86139,0.61972 -6.02808,3.34301 -7.14804,6.14715 -0.50789,1.27166 -0.60837,2.01838 -0.61399,4.56318 -0.006,2.7562 0.0601,3.18538 0.70337,4.55779 2.00917,4.28682 5.27432,6.29013 10.25217,6.29013 2.91227,0 4.9999,-0.51881 7.36152,-1.82945 l 1.39045,-0.77167 1.02093,1.76358 c 1.82542,3.15329 1.77481,2.98307 1.06204,3.57217 -1.06529,0.88046 -4.76134,2.47831 -6.76819,2.92599 -2.3302,0.5198 -6.19588,0.51703 -8.6349,-0.006 z m -142.522253,-16.37005 0,-16.00729 7.28996,0 c 8.28217,0 9.79934,0.20943 13.07709,1.80521 7.9971,3.89339 10.66861,15.31413 5.50204,23.52125 -1.34351,2.13418 -3.2332,3.8127 -5.59016,4.96549 -3.05843,1.49588 -4.77225,1.72263 -13.02018,1.72263 l -7.25875,0 z m 16.80104,9.04416 c 3.76446,-1.75107 5.6135,-5.03871 5.37065,-9.54916 -0.19376,-3.59854 -2.08302,-6.73138 -4.95499,-8.21654 -1.47761,-0.7641 -4.24703,-1.19096 -7.75784,-1.19574 l -3.37344,-0.005 0,9.94806 0,9.94805 4.56406,-0.0958 c 4.33787,-0.0911 4.64274,-0.13242 6.15156,-0.83426 z m 17.65889,-9.11031 0.0682,-16.07343 3.04271,0 3.04271,0 0.0682,16.07343 0.0682,16.07344 -3.1791,0 -3.1791,0 0.0682,-16.07344 z m 10.72867,14.15521 c 0.38862,-1.05503 3.03987,-8.22854 5.89166,-15.94114 l 5.18507,-14.02292 3.55119,-0.0708 3.55119,-0.0708 5.89146,15.8135 c 3.2403,8.69742 5.88944,15.90657 5.88698,16.02033 -0.002,0.11376 -1.38845,0.17329 -3.07996,0.13229 l -3.07548,-0.0745 -1.19703,-3.24115 -1.19702,-3.24114 -6.6738,0 -6.67379,0 -1.26366,3.30729 -1.26366,3.30729 -3.11987,0 -3.11987,0 0.70659,-1.91823 z m 19.5705,-10.05417 c -2.07134,-5.68822 -4.82713,-12.6032 -4.95995,-12.44577 -0.19408,0.23007 -4.76581,12.31708 -4.76581,12.60015 0,0.097 2.21539,0.17635 4.9231,0.17635 3.82632,0 4.89626,-0.0737 4.80266,-0.33073 z m 18.05549,-1.25677 0,-13.22916 -4.7625,0 -4.7625,0 0,-2.77813 0,-2.77812 12.7,0 12.700003,0 0,2.77812 0,2.77813 -4.7625,0 -4.7625,0 0,13.22916 0,13.22917 -3.175003,0 -3.175,0 z m 20.372923,-2.77812 0,-16.00729 10.84791,0 10.84792,0 0,2.77812 0,2.77813 -7.81267,0 -7.81268,0 0.0736,3.63802 0.0736,3.63802 6.54843,0.0708 6.54844,0.0708 0,2.64122 0,2.64121 -6.61458,0 -6.61459,0 0,4.10104 0,4.10104 7.9375,0 7.9375,0 0,2.77812 0,2.77813 -10.9802,0 -10.98021,0 0,-16.00729 z m 59.53124,0 0,-16.00729 3.04271,0 3.0427,0 0,6.35 0,6.35 6.87917,0 6.87917,0 0,-6.35 0,-6.35 3.175,0 3.175,0 0,16.00729 0,16.00729 -3.175,0 -3.175,0 0,-6.87917 0,-6.87916 -6.87917,0 -6.87917,0 0,6.87916 0,6.87917 -3.0427,0 -3.04271,0 z m -6.97218,-40.09046 c -12.49319,-2.16052 -22.7588,-3.97213 -22.81248,-4.0258 -0.0537,-0.0537 0.37192,-1.28182 0.94576,-2.72921 0.57385,-1.44739 1.04658,-2.78271 1.05051,-2.96738 0.004,-0.20836 0.23305,-0.28765 0.60246,-0.20896 0.32742,0.0697 11.43,1.34292 24.6724,2.82929 13.24238,1.48636 24.11917,2.73374 24.17062,2.77195 0.18944,0.14069 -2.15787,4.26586 -3.5589,6.25442 -0.89184,1.26585 -1.61894,2.0416 -1.90008,2.02721 -0.25047,-0.0128 -10.6771,-1.791 -23.17029,-3.95152 z m 4.65502,-10.43487 c -13.42543,-1.34176 -24.46045,-2.49013 -24.52226,-2.55195 -0.0618,-0.0618 0.0848,-1.27135 0.32576,-2.68786 l 0.43814,-2.57548 1.85912,0.008 c 3.54625,0.0153 49.37152,2.04014 49.51942,2.18804 0.20957,0.20957 -0.30688,2.51917 -1.23947,5.54299 -0.7029,2.27904 -0.8641,2.57596 -1.38323,2.54773 -0.32319,-0.0176 -11.57206,-1.12975 -24.99748,-2.47151 z m 0.33279,-10.19947 c -13.09687,-0.3963 -23.8125,-0.73625 -23.8125,-0.75544 0,-0.0192 0.0229,-1.25539 0.0509,-2.74711 l 0.0509,-2.71223 1.13973,-0.0661 c 1.52054,-0.0882 47.88636,-1.38987 49.49233,-1.38944 l 1.25677,3.4e-4 0,4.23333 0,4.23334 -2.18281,-0.0381 c -1.20055,-0.0209 -12.89844,-0.36231 -25.99531,-0.75862 z M 145.33672,93.336978 c -0.56397,-1.49159 -1.0254,-2.82134 -1.0254,-2.95502 0,-0.13368 10.02509,-1.99455 22.27798,-4.13527 12.25288,-2.14072 22.68415,-3.96842 23.18059,-4.06156 0.88032,-0.16515 0.93527,-0.12181 2.22415,1.75402 1.51399,2.20347 3.8876,6.26882 3.7434,6.41145 -0.10781,0.10665 -48.05989,5.69836 -48.86661,5.69836 -0.40213,0 -0.72358,-0.56825 -1.53411,-2.71198 z"
       id="path3347"
       inkscape:connector-curvature="0"
       sodipodi:nodetypes="csscscsscssssccsscsssccccssssscccssccccccccccccccccccscccscccccccccccccccsscccccccccccccccccccccccccccccccccccccccccccccccccccccccccccccccccccccscsccssscscccccssccccsscssccccccssscscss" />
    <path
       style="fill:#eb174a;fill-opacity:1;stroke:none;stroke-width:0.26458332;stroke-miterlimit:4;stroke-dasharray:none"
       d="m 147.12723,98.940468 49.95295,-5.078121 c 1.18377,2.631512 2.10892,5.314747 2.40543,8.123713 l -51.46776,2.36725 z"
       id="rect3360"
       inkscape:connector-curvature="0"
       sodipodi:nodetypes="ccccc" />
  </g>
</svg>
